# xmcd
#
# Track frame offsets:
#	182
#	14467
#	28567
#	42002
#	55075
#	67307
#	81632
#	95317
#	109262
#	121207
#	133465
#	148142
#
# Disc length: 2178 seconds
#
# Revision: 1
# Processed by: cddbd v1.4PL0 Copyright (c) Steve Scherf et al.
# Submitted via: MusicWizard 6.0.2
#
DISCID=b108800c
DTITLE=Don Williams - Greatest Hits Vol. 1
DYEAR=1988
DGENRE=Country
TTITLE0=Amanda
TTITLE1=Come Early Morning
TTITLE2=The Shelter Of Your Eyes
TTITLE3=Atta Way You Go
TTITLE4=Don't You Believe
TTITLE5=Down The Road I Go
TTITLE6=I Wouldn't Want To Live If You Don't Love Me
TTITLE7=We Should Be Together
TTITLE8=The Ties That Bind
TTITLE9=Ghost Story
TTITLE10=She's In Love With A Rodeo Man
TTITLE11=I Recall A Gypsy Woman
EXTD=
EXTT0=
EXTT1=
EXTT2=
EXTT3=
EXTT4=
EXTT5=
EXTT6=
EXTT7=
EXTT8=
EXTT9=
EXTT10=
EXTT11=
PLAYORDER=
